<svg width="219" height="35" viewBox="0 0 219 35" fill="none" xmlns="http://www.w3.org/2000/svg">
<mask id="path-1-outside-1_112_26" maskUnits="userSpaceOnUse" x="46" y="4" width="173" height="32" fill="black">
<rect fill="white" x="46" y="4" width="173" height="32"/>
<path d="M65.9 27V18.39C65.9 17.61 65.71 17.035 65.33 16.665C64.96 16.285 64.495 16.095 63.935 16.095C63.115 16.095 62.445 16.45 61.925 17.16C61.405 17.86 61.145 19.065 61.145 20.775H59.255C59.255 19.005 59.415 17.54 59.735 16.38C60.055 15.21 60.495 14.29 61.055 13.62C61.615 12.94 62.255 12.46 62.975 12.18C63.705 11.89 64.48 11.745 65.3 11.745C66.56 11.745 67.59 12.03 68.39 12.6C69.2 13.17 69.795 13.955 70.175 14.955C70.565 15.955 70.76 17.1 70.76 18.39V27H65.9ZM46.535 27V12.225H50.765L51.275 14.31C51.785 13.42 52.42 12.77 53.18 12.36C53.95 11.95 54.785 11.745 55.685 11.745C56.955 11.745 57.99 12.03 58.79 12.6C59.6 13.17 60.195 13.955 60.575 14.955C60.955 15.955 61.145 17.1 61.145 18.39V27H56.315V18.39C56.315 17.61 56.125 17.035 55.745 16.665C55.365 16.285 54.905 16.095 54.365 16.095C53.815 16.095 53.31 16.25 52.85 16.56C52.39 16.87 52.02 17.37 51.74 18.06C51.47 18.74 51.335 19.645 51.335 20.775V27H46.535ZM82.0217 27.48C80.6517 27.48 79.3917 27.2 78.2417 26.64C77.1017 26.07 76.1867 25.21 75.4967 24.06C74.8167 22.9 74.4767 21.43 74.4767 19.65C74.4767 17.81 74.8167 16.31 75.4967 15.15C76.1867 13.99 77.1017 13.135 78.2417 12.585C79.3917 12.025 80.6517 11.745 82.0217 11.745C83.3617 11.745 84.5967 12.025 85.7267 12.585C86.8567 13.135 87.7617 13.99 88.4417 15.15C89.1317 16.31 89.4767 17.81 89.4767 19.65C89.4767 21.43 89.1317 22.9 88.4417 24.06C87.7617 25.21 86.8567 26.07 85.7267 26.64C84.5967 27.2 83.3617 27.48 82.0217 27.48ZM81.8417 23.295C82.3017 23.295 82.7467 23.175 83.1767 22.935C83.6167 22.695 83.9817 22.31 84.2717 21.78C84.5617 21.24 84.7067 20.53 84.7067 19.65C84.7067 18.28 84.4617 17.315 83.9717 16.755C83.4817 16.195 82.8917 15.915 82.2017 15.915C81.7417 15.915 81.2817 16.035 80.8217 16.275C80.3717 16.515 79.9967 16.91 79.6967 17.46C79.4067 18 79.2617 18.73 79.2617 19.65C79.2617 20.98 79.5167 21.92 80.0267 22.47C80.5467 23.02 81.1517 23.295 81.8417 23.295ZM99.9291 27.48C98.5591 27.48 97.2991 27.2 96.1491 26.64C95.0091 26.07 94.0941 25.21 93.4041 24.06C92.7241 22.9 92.3841 21.43 92.3841 19.65C92.3841 17.81 92.7241 16.31 93.4041 15.15C94.0941 13.99 95.0091 13.135 96.1491 12.585C97.2991 12.025 98.5591 11.745 99.9291 11.745C101.269 11.745 102.504 12.025 103.634 12.585C104.764 13.135 105.669 13.99 106.349 15.15C107.039 16.31 107.384 17.81 107.384 19.65C107.384 21.43 107.039 22.9 106.349 24.06C105.669 25.21 104.764 26.07 103.634 26.64C102.504 27.2 101.269 27.48 99.9291 27.48ZM99.7491 23.295C100.209 23.295 100.654 23.175 101.084 22.935C101.524 22.695 101.889 22.31 102.179 21.78C102.469 21.24 102.614 20.53 102.614 19.65C102.614 18.28 102.369 17.315 101.879 16.755C101.389 16.195 100.799 15.915 100.109 15.915C99.6491 15.915 99.1891 16.035 98.7291 16.275C98.2791 16.515 97.9041 16.91 97.6041 17.46C97.3141 18 97.1691 18.73 97.1691 19.65C97.1691 20.98 97.4241 21.92 97.9341 22.47C98.4541 23.02 99.0591 23.295 99.7491 23.295ZM117.162 27.48C115.882 27.48 114.717 27.15 113.667 26.49C112.627 25.82 111.802 24.89 111.192 23.7C110.582 22.5 110.277 21.11 110.277 19.53C110.277 17.97 110.567 16.61 111.147 15.45C111.727 14.28 112.512 13.37 113.502 12.72C114.492 12.07 115.602 11.745 116.832 11.745C117.942 11.745 118.887 12.01 119.667 12.54C120.447 13.06 121.037 13.85 121.437 14.91C121.847 15.96 122.052 17.28 122.052 18.87H120.717C120.717 18.31 120.592 17.825 120.342 17.415C120.102 16.995 119.782 16.67 119.382 16.44C118.982 16.21 118.537 16.095 118.047 16.095C117.417 16.095 116.877 16.245 116.427 16.545C115.987 16.845 115.652 17.255 115.422 17.775C115.192 18.295 115.077 18.88 115.077 19.53C115.077 20.21 115.192 20.82 115.422 21.36C115.662 21.9 116.002 22.325 116.442 22.635C116.882 22.945 117.397 23.1 117.987 23.1C118.457 23.1 118.897 22.97 119.307 22.71C119.727 22.44 120.067 22.085 120.327 21.645C120.587 21.205 120.717 20.725 120.717 20.205H122.052C122.052 21.875 121.822 23.25 121.362 24.33C120.912 25.4 120.312 26.195 119.562 26.715C118.822 27.225 118.022 27.48 117.162 27.48ZM121.662 27L120.717 23.145V6.3H125.577V27H121.662ZM144.949 27.48C143.669 27.48 142.504 27.15 141.454 26.49C140.414 25.82 139.589 24.89 138.979 23.7C138.369 22.5 138.064 21.11 138.064 19.53C138.064 17.97 138.354 16.61 138.934 15.45C139.514 14.28 140.299 13.37 141.289 12.72C142.279 12.07 143.389 11.745 144.619 11.745C145.729 11.745 146.674 12.01 147.454 12.54C148.234 13.06 148.824 13.85 149.224 14.91C149.634 15.96 149.839 17.28 149.839 18.87H148.504C148.504 18.31 148.379 17.825 148.129 17.415C147.889 16.995 147.569 16.67 147.169 16.44C146.769 16.21 146.324 16.095 145.834 16.095C145.204 16.095 144.664 16.245 144.214 16.545C143.774 16.845 143.439 17.255 143.209 17.775C142.979 18.295 142.864 18.88 142.864 19.53C142.864 20.21 142.979 20.82 143.209 21.36C143.449 21.9 143.789 22.325 144.229 22.635C144.669 22.945 145.184 23.1 145.774 23.1C146.244 23.1 146.684 22.97 147.094 22.71C147.514 22.44 147.854 22.085 148.114 21.645C148.374 21.205 148.504 20.725 148.504 20.205H149.839C149.839 21.875 149.609 23.25 149.149 24.33C148.699 25.4 148.099 26.195 147.349 26.715C146.609 27.225 145.809 27.48 144.949 27.48ZM149.449 27L148.504 23.145V6.3H153.364V27H149.449ZM161.591 10.32C160.681 10.32 159.976 10.09 159.476 9.63C158.986 9.16 158.741 8.5 158.741 7.65C158.741 6.82 158.986 6.16 159.476 5.67C159.976 5.17 160.681 4.92 161.591 4.92C162.471 4.92 163.166 5.17 163.676 5.67C164.186 6.16 164.441 6.82 164.441 7.65C164.441 8.5 164.186 9.16 163.676 9.63C163.166 10.09 162.471 10.32 161.591 10.32ZM159.191 27V12.135H163.991V27H159.191ZM179.497 27L178.882 23.055V17.52C178.882 16.78 178.747 16.205 178.477 15.795C178.207 15.385 177.632 15.18 176.752 15.18C176.232 15.18 175.807 15.26 175.477 15.42C175.157 15.57 174.917 15.775 174.757 16.035C174.607 16.285 174.532 16.56 174.532 16.86H169.342C169.342 15.7 169.617 14.745 170.167 13.995C170.717 13.235 171.542 12.67 172.642 12.3C173.742 11.93 175.112 11.745 176.752 11.745C178.182 11.745 179.412 11.965 180.442 12.405C181.482 12.845 182.282 13.505 182.842 14.385C183.402 15.265 183.682 16.37 183.682 17.7V27H179.497ZM174.847 27.48C173.527 27.48 172.412 27.26 171.502 26.82C170.602 26.37 169.922 25.765 169.462 25.005C169.002 24.245 168.772 23.405 168.772 22.485C168.772 21.615 169.012 20.865 169.492 20.235C169.972 19.595 170.682 19.1 171.622 18.75C172.572 18.4 173.737 18.225 175.117 18.225C175.957 18.225 176.697 18.27 177.337 18.36C177.987 18.45 178.652 18.56 179.332 18.69V21.39C178.832 21.28 178.312 21.195 177.772 21.135C177.242 21.075 176.722 21.045 176.212 21.045C175.502 21.045 174.937 21.16 174.517 21.39C174.107 21.61 173.902 21.975 173.902 22.485C173.902 22.855 174.087 23.18 174.457 23.46C174.827 23.73 175.412 23.865 176.212 23.865C176.892 23.865 177.427 23.73 177.817 23.46C178.207 23.19 178.482 22.85 178.642 22.44C178.802 22.03 178.882 21.625 178.882 21.225H180.007C180.007 22.365 179.827 23.41 179.467 24.36C179.107 25.31 178.547 26.07 177.787 26.64C177.027 27.2 176.047 27.48 174.847 27.48ZM188.74 27V12.135H193.54V27H188.74ZM192.52 20.7C192.52 18.69 192.775 17.04 193.285 15.75C193.795 14.46 194.44 13.505 195.22 12.885C196 12.265 196.795 11.955 197.605 11.955C197.765 11.955 197.925 11.965 198.085 11.985C198.245 11.995 198.395 12.015 198.535 12.045L198.58 16.875C198.33 16.845 198.075 16.825 197.815 16.815C197.555 16.795 197.31 16.785 197.08 16.785C196.38 16.785 195.76 16.915 195.22 17.175C194.69 17.435 194.275 17.85 193.975 18.42C193.685 18.99 193.54 19.75 193.54 20.7H192.52ZM202.524 12.225H208.014L211.044 22.8H210.309L213.324 12.225H218.184L212.424 29.385C211.724 31.405 210.909 32.795 209.979 33.555C209.059 34.315 207.984 34.695 206.754 34.695C206.004 34.695 205.249 34.625 204.489 34.485C203.739 34.355 202.989 34.135 202.239 33.825V29.7C202.799 29.96 203.344 30.155 203.874 30.285C204.414 30.425 204.939 30.495 205.449 30.495C205.789 30.495 206.109 30.43 206.409 30.3C206.709 30.18 206.984 29.965 207.234 29.655C207.484 29.345 207.694 28.92 207.864 28.38L208.344 27L202.524 12.225Z"/>
</mask>
<path d="M65.9 27V18.39C65.9 17.61 65.71 17.035 65.33 16.665C64.96 16.285 64.495 16.095 63.935 16.095C63.115 16.095 62.445 16.45 61.925 17.16C61.405 17.86 61.145 19.065 61.145 20.775H59.255C59.255 19.005 59.415 17.54 59.735 16.38C60.055 15.21 60.495 14.29 61.055 13.62C61.615 12.94 62.255 12.46 62.975 12.18C63.705 11.89 64.48 11.745 65.3 11.745C66.56 11.745 67.59 12.03 68.39 12.6C69.2 13.17 69.795 13.955 70.175 14.955C70.565 15.955 70.76 17.1 70.76 18.39V27H65.9ZM46.535 27V12.225H50.765L51.275 14.31C51.785 13.42 52.42 12.77 53.18 12.36C53.95 11.95 54.785 11.745 55.685 11.745C56.955 11.745 57.99 12.03 58.79 12.6C59.6 13.17 60.195 13.955 60.575 14.955C60.955 15.955 61.145 17.1 61.145 18.39V27H56.315V18.39C56.315 17.61 56.125 17.035 55.745 16.665C55.365 16.285 54.905 16.095 54.365 16.095C53.815 16.095 53.31 16.25 52.85 16.56C52.39 16.87 52.02 17.37 51.74 18.06C51.47 18.74 51.335 19.645 51.335 20.775V27H46.535ZM82.0217 27.48C80.6517 27.48 79.3917 27.2 78.2417 26.64C77.1017 26.07 76.1867 25.21 75.4967 24.06C74.8167 22.9 74.4767 21.43 74.4767 19.65C74.4767 17.81 74.8167 16.31 75.4967 15.15C76.1867 13.99 77.1017 13.135 78.2417 12.585C79.3917 12.025 80.6517 11.745 82.0217 11.745C83.3617 11.745 84.5967 12.025 85.7267 12.585C86.8567 13.135 87.7617 13.99 88.4417 15.15C89.1317 16.31 89.4767 17.81 89.4767 19.65C89.4767 21.43 89.1317 22.9 88.4417 24.06C87.7617 25.21 86.8567 26.07 85.7267 26.64C84.5967 27.2 83.3617 27.48 82.0217 27.48ZM81.8417 23.295C82.3017 23.295 82.7467 23.175 83.1767 22.935C83.6167 22.695 83.9817 22.31 84.2717 21.78C84.5617 21.24 84.7067 20.53 84.7067 19.65C84.7067 18.28 84.4617 17.315 83.9717 16.755C83.4817 16.195 82.8917 15.915 82.2017 15.915C81.7417 15.915 81.2817 16.035 80.8217 16.275C80.3717 16.515 79.9967 16.91 79.6967 17.46C79.4067 18 79.2617 18.73 79.2617 19.65C79.2617 20.98 79.5167 21.92 80.0267 22.47C80.5467 23.02 81.1517 23.295 81.8417 23.295ZM99.9291 27.48C98.5591 27.48 97.2991 27.2 96.1491 26.64C95.0091 26.07 94.0941 25.21 93.4041 24.06C92.7241 22.9 92.3841 21.43 92.3841 19.65C92.3841 17.81 92.7241 16.31 93.4041 15.15C94.0941 13.99 95.0091 13.135 96.1491 12.585C97.2991 12.025 98.5591 11.745 99.9291 11.745C101.269 11.745 102.504 12.025 103.634 12.585C104.764 13.135 105.669 13.99 106.349 15.15C107.039 16.31 107.384 17.81 107.384 19.65C107.384 21.43 107.039 22.9 106.349 24.06C105.669 25.21 104.764 26.07 103.634 26.64C102.504 27.2 101.269 27.48 99.9291 27.48ZM99.7491 23.295C100.209 23.295 100.654 23.175 101.084 22.935C101.524 22.695 101.889 22.31 102.179 21.78C102.469 21.24 102.614 20.53 102.614 19.65C102.614 18.28 102.369 17.315 101.879 16.755C101.389 16.195 100.799 15.915 100.109 15.915C99.6491 15.915 99.1891 16.035 98.7291 16.275C98.2791 16.515 97.9041 16.91 97.6041 17.46C97.3141 18 97.1691 18.73 97.1691 19.65C97.1691 20.98 97.4241 21.92 97.9341 22.47C98.4541 23.02 99.0591 23.295 99.7491 23.295ZM117.162 27.48C115.882 27.48 114.717 27.15 113.667 26.49C112.627 25.82 111.802 24.89 111.192 23.7C110.582 22.5 110.277 21.11 110.277 19.53C110.277 17.97 110.567 16.61 111.147 15.45C111.727 14.28 112.512 13.37 113.502 12.72C114.492 12.07 115.602 11.745 116.832 11.745C117.942 11.745 118.887 12.01 119.667 12.54C120.447 13.06 121.037 13.85 121.437 14.91C121.847 15.96 122.052 17.28 122.052 18.87H120.717C120.717 18.31 120.592 17.825 120.342 17.415C120.102 16.995 119.782 16.67 119.382 16.44C118.982 16.21 118.537 16.095 118.047 16.095C117.417 16.095 116.877 16.245 116.427 16.545C115.987 16.845 115.652 17.255 115.422 17.775C115.192 18.295 115.077 18.88 115.077 19.53C115.077 20.21 115.192 20.82 115.422 21.36C115.662 21.9 116.002 22.325 116.442 22.635C116.882 22.945 117.397 23.1 117.987 23.1C118.457 23.1 118.897 22.97 119.307 22.71C119.727 22.44 120.067 22.085 120.327 21.645C120.587 21.205 120.717 20.725 120.717 20.205H122.052C122.052 21.875 121.822 23.25 121.362 24.33C120.912 25.4 120.312 26.195 119.562 26.715C118.822 27.225 118.022 27.48 117.162 27.48ZM121.662 27L120.717 23.145V6.3H125.577V27H121.662ZM144.949 27.48C143.669 27.48 142.504 27.15 141.454 26.49C140.414 25.82 139.589 24.89 138.979 23.7C138.369 22.5 138.064 21.11 138.064 19.53C138.064 17.97 138.354 16.61 138.934 15.45C139.514 14.28 140.299 13.37 141.289 12.72C142.279 12.07 143.389 11.745 144.619 11.745C145.729 11.745 146.674 12.01 147.454 12.54C148.234 13.06 148.824 13.85 149.224 14.91C149.634 15.96 149.839 17.28 149.839 18.87H148.504C148.504 18.31 148.379 17.825 148.129 17.415C147.889 16.995 147.569 16.67 147.169 16.44C146.769 16.21 146.324 16.095 145.834 16.095C145.204 16.095 144.664 16.245 144.214 16.545C143.774 16.845 143.439 17.255 143.209 17.775C142.979 18.295 142.864 18.88 142.864 19.53C142.864 20.21 142.979 20.82 143.209 21.36C143.449 21.9 143.789 22.325 144.229 22.635C144.669 22.945 145.184 23.1 145.774 23.1C146.244 23.1 146.684 22.97 147.094 22.71C147.514 22.44 147.854 22.085 148.114 21.645C148.374 21.205 148.504 20.725 148.504 20.205H149.839C149.839 21.875 149.609 23.25 149.149 24.33C148.699 25.4 148.099 26.195 147.349 26.715C146.609 27.225 145.809 27.48 144.949 27.48ZM149.449 27L148.504 23.145V6.3H153.364V27H149.449ZM161.591 10.32C160.681 10.32 159.976 10.09 159.476 9.63C158.986 9.16 158.741 8.5 158.741 7.65C158.741 6.82 158.986 6.16 159.476 5.67C159.976 5.17 160.681 4.92 161.591 4.92C162.471 4.92 163.166 5.17 163.676 5.67C164.186 6.16 164.441 6.82 164.441 7.65C164.441 8.5 164.186 9.16 163.676 9.63C163.166 10.09 162.471 10.32 161.591 10.32ZM159.191 27V12.135H163.991V27H159.191ZM179.497 27L178.882 23.055V17.52C178.882 16.78 178.747 16.205 178.477 15.795C178.207 15.385 177.632 15.18 176.752 15.18C176.232 15.18 175.807 15.26 175.477 15.42C175.157 15.57 174.917 15.775 174.757 16.035C174.607 16.285 174.532 16.56 174.532 16.86H169.342C169.342 15.7 169.617 14.745 170.167 13.995C170.717 13.235 171.542 12.67 172.642 12.3C173.742 11.93 175.112 11.745 176.752 11.745C178.182 11.745 179.412 11.965 180.442 12.405C181.482 12.845 182.282 13.505 182.842 14.385C183.402 15.265 183.682 16.37 183.682 17.7V27H179.497ZM174.847 27.48C173.527 27.48 172.412 27.26 171.502 26.82C170.602 26.37 169.922 25.765 169.462 25.005C169.002 24.245 168.772 23.405 168.772 22.485C168.772 21.615 169.012 20.865 169.492 20.235C169.972 19.595 170.682 19.1 171.622 18.75C172.572 18.4 173.737 18.225 175.117 18.225C175.957 18.225 176.697 18.27 177.337 18.36C177.987 18.45 178.652 18.56 179.332 18.69V21.39C178.832 21.28 178.312 21.195 177.772 21.135C177.242 21.075 176.722 21.045 176.212 21.045C175.502 21.045 174.937 21.16 174.517 21.39C174.107 21.61 173.902 21.975 173.902 22.485C173.902 22.855 174.087 23.18 174.457 23.46C174.827 23.73 175.412 23.865 176.212 23.865C176.892 23.865 177.427 23.73 177.817 23.46C178.207 23.19 178.482 22.85 178.642 22.44C178.802 22.03 178.882 21.625 178.882 21.225H180.007C180.007 22.365 179.827 23.41 179.467 24.36C179.107 25.31 178.547 26.07 177.787 26.64C177.027 27.2 176.047 27.48 174.847 27.48ZM188.74 27V12.135H193.54V27H188.74ZM192.52 20.7C192.52 18.69 192.775 17.04 193.285 15.75C193.795 14.46 194.44 13.505 195.22 12.885C196 12.265 196.795 11.955 197.605 11.955C197.765 11.955 197.925 11.965 198.085 11.985C198.245 11.995 198.395 12.015 198.535 12.045L198.58 16.875C198.33 16.845 198.075 16.825 197.815 16.815C197.555 16.795 197.31 16.785 197.08 16.785C196.38 16.785 195.76 16.915 195.22 17.175C194.69 17.435 194.275 17.85 193.975 18.42C193.685 18.99 193.54 19.75 193.54 20.7H192.52ZM202.524 12.225H208.014L211.044 22.8H210.309L213.324 12.225H218.184L212.424 29.385C211.724 31.405 210.909 32.795 209.979 33.555C209.059 34.315 207.984 34.695 206.754 34.695C206.004 34.695 205.249 34.625 204.489 34.485C203.739 34.355 202.989 34.135 202.239 33.825V29.7C202.799 29.96 203.344 30.155 203.874 30.285C204.414 30.425 204.939 30.495 205.449 30.495C205.789 30.495 206.109 30.43 206.409 30.3C206.709 30.18 206.984 29.965 207.234 29.655C207.484 29.345 207.694 28.92 207.864 28.38L208.344 27L202.524 12.225Z" fill="white"/>
<path d="M65.9 27H65.4V27.5H65.9V27ZM65.33 16.665L64.9716 17.0139L64.9812 17.0232L65.33 16.665ZM61.925 17.16L62.3264 17.4582L62.3284 17.4554L61.925 17.16ZM61.145 20.775V21.275H61.645V20.775H61.145ZM59.255 20.775H58.755V21.275H59.255V20.775ZM59.735 16.38L60.217 16.513L60.2173 16.5119L59.735 16.38ZM61.055 13.62L61.4387 13.9407L61.441 13.9379L61.055 13.62ZM62.975 12.18L63.1562 12.646L63.1596 12.6447L62.975 12.18ZM68.39 12.6L68.0999 13.0072L68.1023 13.0089L68.39 12.6ZM70.175 14.955L69.7076 15.1326L69.7092 15.1367L70.175 14.955ZM70.76 27V27.5H71.26V27H70.76ZM46.535 27H46.035V27.5H46.535V27ZM46.535 12.225V11.725H46.035V12.225H46.535ZM50.765 12.225L51.2507 12.1062L51.1574 11.725H50.765V12.225ZM51.275 14.31L50.7893 14.4288L51.0866 15.6443L51.7088 14.5586L51.275 14.31ZM53.18 12.36L52.945 11.9187L52.9426 11.9199L53.18 12.36ZM58.79 12.6L58.4999 13.0072L58.5023 13.0089L58.79 12.6ZM61.145 27V27.5H61.645V27H61.145ZM56.315 27H55.815V27.5H56.315V27ZM55.745 16.665L55.3914 17.0186L55.3962 17.0232L55.745 16.665ZM51.74 18.06L51.2767 17.872L51.2753 17.8755L51.74 18.06ZM51.335 27V27.5H51.835V27H51.335ZM66.4 27V18.39H65.4V27H66.4ZM66.4 18.39C66.4 17.5386 66.1931 16.8075 65.6788 16.3068L64.9812 17.0232C65.2269 17.2625 65.4 17.6814 65.4 18.39H66.4ZM65.6882 16.3162C65.2184 15.8337 64.6215 15.595 63.935 15.595V16.595C64.3685 16.595 64.7016 16.7363 64.9718 17.0138L65.6882 16.3162ZM63.935 15.595C62.9425 15.595 62.1277 16.037 61.5216 16.8646L62.3284 17.4554C62.7623 16.863 63.2875 16.595 63.935 16.595V15.595ZM61.5236 16.8618C60.9021 17.6985 60.645 19.0447 60.645 20.775H61.645C61.645 19.0853 61.9079 18.0215 62.3264 17.4582L61.5236 16.8618ZM61.145 20.275H59.255V21.275H61.145V20.275ZM59.755 20.775C59.755 19.0309 59.9131 17.6145 60.217 16.513L59.253 16.247C58.9169 17.4655 58.755 18.9791 58.755 20.775H59.755ZM60.2173 16.5119C60.5252 15.3859 60.939 14.5385 61.4386 13.9407L60.6714 13.2993C60.051 14.0415 59.5848 15.0341 59.2527 16.2481L60.2173 16.5119ZM61.441 13.9379C61.9543 13.3145 62.5267 12.8908 63.1562 12.646L62.7938 11.714C61.9833 12.0292 61.2757 12.5654 60.669 13.3021L61.441 13.9379ZM63.1596 12.6447C63.8283 12.379 64.5404 12.245 65.3 12.245V11.245C64.4196 11.245 63.5817 11.401 62.7904 11.7153L63.1596 12.6447ZM65.3 12.245C66.4854 12.245 67.4057 12.5126 68.0999 13.0072L68.6801 12.1928C67.7743 11.5474 66.6346 11.245 65.3 11.245V12.245ZM68.1023 13.0089C68.824 13.5168 69.3601 14.2181 69.7076 15.1326L70.6424 14.7774C70.2299 13.6919 69.576 12.8232 68.6777 12.1911L68.1023 13.0089ZM69.7092 15.1367C70.0725 16.0684 70.26 17.1499 70.26 18.39H71.26C71.26 17.0501 71.0575 15.8416 70.6408 14.7733L69.7092 15.1367ZM70.26 18.39V27H71.26V18.39H70.26ZM70.76 26.5H65.9V27.5H70.76V26.5ZM47.035 27V12.225H46.035V27H47.035ZM46.535 12.725H50.765V11.725H46.535V12.725ZM50.2793 12.3438L50.7893 14.4288L51.7607 14.1912L51.2507 12.1062L50.2793 12.3438ZM51.7088 14.5586C52.1813 13.7341 52.7537 13.1581 53.4174 12.8L52.9426 11.9199C52.0863 12.3819 51.3887 13.1059 50.8412 14.0614L51.7088 14.5586ZM53.415 12.8013C54.1103 12.4311 54.8643 12.245 55.685 12.245V11.245C54.7057 11.245 53.7897 11.4689 52.945 11.9187L53.415 12.8013ZM55.685 12.245C56.8814 12.245 57.8064 12.5131 58.4999 13.0072L59.0801 12.1928C58.1736 11.5469 57.0286 11.245 55.685 11.245V12.245ZM58.5023 13.0089C59.224 13.5168 59.7601 14.2181 60.1076 15.1326L61.0424 14.7774C60.6299 13.6919 59.976 12.8232 59.0777 12.1911L58.5023 13.0089ZM60.1076 15.1326C60.4621 16.0655 60.645 17.1485 60.645 18.39H61.645C61.645 17.0515 61.4479 15.8445 61.0424 14.7774L60.1076 15.1326ZM60.645 18.39V27H61.645V18.39H60.645ZM61.145 26.5H56.315V27.5H61.145V26.5ZM56.815 27V18.39H55.815V27H56.815ZM56.815 18.39C56.815 17.5386 56.6081 16.8075 56.0938 16.3068L55.3962 17.0232C55.6419 17.2625 55.815 17.6814 55.815 18.39H56.815ZM56.0986 16.3114C55.6243 15.8372 55.0369 15.595 54.365 15.595V16.595C54.7731 16.595 55.1057 16.7328 55.3914 17.0186L56.0986 16.3114ZM54.365 15.595C53.7145 15.595 53.1124 15.7802 52.5706 16.1454L53.1294 16.9746C53.5076 16.7198 53.9155 16.595 54.365 16.595V15.595ZM52.5706 16.1454C52.0042 16.527 51.5816 17.1207 51.2767 17.872L52.2033 18.248C52.4584 17.6193 52.7758 17.213 53.1294 16.9746L52.5706 16.1454ZM51.2753 17.8755C50.9728 18.6372 50.835 19.6125 50.835 20.775H51.835C51.835 19.6775 51.9672 18.8428 52.2047 18.2445L51.2753 17.8755ZM50.835 20.775V27H51.835V20.775H50.835ZM51.335 26.5H46.535V27.5H51.335V26.5ZM78.2417 26.64L78.0181 27.0872L78.0228 27.0895L78.2417 26.64ZM75.4967 24.06L75.0653 24.3129L75.068 24.3172L75.4967 24.06ZM75.4967 15.15L75.067 14.8944L75.0654 14.8971L75.4967 15.15ZM78.2417 12.585L78.459 13.0353L78.4606 13.0345L78.2417 12.585ZM85.7267 12.585L85.5047 13.033L85.5079 13.0346L85.7267 12.585ZM88.4417 15.15L88.0104 15.4029L88.012 15.4056L88.4417 15.15ZM88.4417 24.06L88.012 23.8044L88.0113 23.8055L88.4417 24.06ZM85.7267 26.64L85.9487 27.088L85.9519 27.0864L85.7267 26.64ZM83.1767 22.935L82.9373 22.496L82.933 22.4984L83.1767 22.935ZM84.2717 21.78L84.7104 22.02L84.7122 22.0166L84.2717 21.78ZM83.9717 16.755L84.348 16.4257L84.348 16.4257L83.9717 16.755ZM80.8217 16.275L80.5904 15.8317L80.5864 15.8338L80.8217 16.275ZM79.6967 17.46L79.2578 17.2206L79.2562 17.2234L79.6967 17.46ZM80.0267 22.47L79.6601 22.81L79.6634 22.8135L80.0267 22.47ZM82.0217 26.98C80.7221 26.98 79.5376 26.7149 78.4606 26.1905L78.0228 27.0895C79.2458 27.6851 80.5814 27.98 82.0217 27.98V26.98ZM78.4653 26.1928C77.4149 25.6676 76.5692 24.8757 75.9255 23.8028L75.068 24.3172C75.8042 25.5443 76.7885 26.4724 78.0181 27.0872L78.4653 26.1928ZM75.9281 23.8071C75.3053 22.7448 74.9767 21.369 74.9767 19.65H73.9767C73.9767 21.491 74.3281 23.0552 75.0654 24.3129L75.9281 23.8071ZM74.9767 19.65C74.9767 17.8675 75.3066 16.463 75.9281 15.4029L75.0654 14.8971C74.3268 16.157 73.9767 17.7525 73.9767 19.65H74.9767ZM75.9264 15.4056C76.5698 14.3241 77.4133 13.5398 78.459 13.0353L78.0245 12.1347C76.7901 12.7302 75.8037 13.6559 75.067 14.8944L75.9264 15.4056ZM78.4606 13.0345C79.5376 12.5101 80.7221 12.245 82.0217 12.245V11.245C80.5814 11.245 79.2458 11.5399 78.0228 12.1355L78.4606 13.0345ZM82.0217 12.245C83.2896 12.245 84.448 12.5093 85.5047 13.033L85.9487 12.137C84.7454 11.5407 83.4338 11.245 82.0217 11.245V12.245ZM85.5079 13.0346C86.5429 13.5383 87.3766 14.3217 88.0104 15.4029L88.8731 14.8971C88.1468 13.6583 87.1705 12.7317 85.9455 12.1354L85.5079 13.0346ZM88.012 15.4056C88.6422 16.4651 88.9767 17.8685 88.9767 19.65H89.9767C89.9767 17.7515 89.6212 16.1549 88.8714 14.8944L88.012 15.4056ZM88.9767 19.65C88.9767 21.3679 88.6436 22.7426 88.012 23.8044L88.8714 24.3156C89.6199 23.0574 89.9767 21.4921 89.9767 19.65H88.9767ZM88.0113 23.8055C87.3771 24.878 86.5413 25.6691 85.5015 26.1936L85.9519 27.0864C87.1721 26.4709 88.1463 25.542 88.8721 24.3145L88.0113 23.8055ZM85.5047 26.192C84.448 26.7157 83.2896 26.98 82.0217 26.98V27.98C83.4338 27.98 84.7454 27.6843 85.9487 27.088L85.5047 26.192ZM81.8417 23.795C82.393 23.795 82.9213 23.6501 83.4204 23.3716L82.933 22.4984C82.5721 22.6999 82.2104 22.795 81.8417 22.795V23.795ZM83.4161 23.3739C83.9561 23.0794 84.3839 22.6166 84.7103 22.02L83.8331 21.54C83.5795 22.0034 83.2773 22.3106 82.9373 22.4961L83.4161 23.3739ZM84.7122 22.0166C85.0546 21.379 85.2067 20.5789 85.2067 19.65H84.2067C84.2067 20.4811 84.0688 21.101 83.8312 21.5434L84.7122 22.0166ZM85.2067 19.65C85.2067 18.2492 84.962 17.1274 84.348 16.4257L83.5954 17.0843C83.9615 17.5026 84.2067 18.3108 84.2067 19.65H85.2067ZM84.348 16.4257C83.7715 15.7668 83.0482 15.415 82.2017 15.415V16.415C82.7352 16.415 83.192 16.6231 83.5954 17.0843L84.348 16.4257ZM82.2017 15.415C81.6514 15.415 81.1126 15.5593 80.5904 15.8317L81.053 16.7183C81.4508 16.5107 81.8321 16.415 82.2017 16.415V15.415ZM80.5864 15.8338C80.0324 16.1293 79.5938 16.6046 79.2578 17.2206L80.1357 17.6994C80.3997 17.2154 80.711 16.9007 81.057 16.7162L80.5864 15.8338ZM79.2562 17.2234C78.9124 17.8636 78.7617 18.6855 78.7617 19.65H79.7617C79.7617 18.7745 79.901 18.1364 80.1372 17.6966L79.2562 17.2234ZM78.7617 19.65C78.7617 21.0174 79.0188 22.1184 79.6601 22.81L80.3934 22.13C80.0147 21.7216 79.7617 20.9426 79.7617 19.65H78.7617ZM79.6634 22.8135C80.2677 23.4527 81.0001 23.795 81.8417 23.795V22.795C81.3033 22.795 80.8258 22.5873 80.39 22.1265L79.6634 22.8135ZM96.1491 26.64L95.9255 27.0872L95.9302 27.0895L96.1491 26.64ZM93.4041 24.06L92.9728 24.3129L92.9754 24.3172L93.4041 24.06ZM93.4041 15.15L92.9744 14.8944L92.9728 14.8971L93.4041 15.15ZM96.1491 12.585L96.3664 13.0353L96.368 13.0345L96.1491 12.585ZM103.634 12.585L103.412 13.033L103.415 13.0346L103.634 12.585ZM106.349 15.15L105.918 15.4029L105.919 15.4056L106.349 15.15ZM106.349 24.06L105.919 23.8044L105.919 23.8055L106.349 24.06ZM103.634 26.64L103.856 27.088L103.859 27.0864L103.634 26.64ZM101.084 22.935L100.845 22.496L100.84 22.4984L101.084 22.935ZM102.179 21.78L102.618 22.02L102.62 22.0166L102.179 21.78ZM101.879 16.755L102.255 16.4257L102.255 16.4257L101.879 16.755ZM98.7291 16.275L98.4978 15.8317L98.4938 15.8338L98.7291 16.275ZM97.6041 17.46L97.1652 17.2206L97.1636 17.2234L97.6041 17.46ZM97.9341 22.47L97.5675 22.81L97.5708 22.8135L97.9341 22.47ZM99.9291 26.98C98.6295 26.98 97.4451 26.7149 96.368 26.1905L95.9302 27.0895C97.1532 27.6851 98.4888 27.98 99.9291 27.98V26.98ZM96.3727 26.1928C95.3223 25.6676 94.4766 24.8757 93.8329 23.8028L92.9754 24.3172C93.7116 25.5443 94.6959 26.4724 95.9255 27.0872L96.3727 26.1928ZM93.8355 23.8071C93.2127 22.7448 92.8841 21.369 92.8841 19.65H91.8841C91.8841 21.491 92.2355 23.0552 92.9728 24.3129L93.8355 23.8071ZM92.8841 19.65C92.8841 17.8675 93.214 16.463 93.8355 15.4029L92.9728 14.8971C92.2342 16.157 91.8841 17.7525 91.8841 19.65H92.8841ZM93.8339 15.4056C94.4772 14.3241 95.3208 13.5398 96.3664 13.0353L95.9319 12.1347C94.6975 12.7302 93.7111 13.6559 92.9744 14.8944L93.8339 15.4056ZM96.368 13.0345C97.4451 12.5101 98.6295 12.245 99.9291 12.245V11.245C98.4888 11.245 97.1532 11.5399 95.9302 12.1355L96.368 13.0345ZM99.9291 12.245C101.197 12.245 102.355 12.5093 103.412 13.033L103.856 12.137C102.653 11.5407 101.341 11.245 99.9291 11.245V12.245ZM103.415 13.0346C104.45 13.5383 105.284 14.3217 105.918 15.4029L106.78 14.8971C106.054 13.6583 105.078 12.7317 103.853 12.1354L103.415 13.0346ZM105.919 15.4056C106.55 16.4651 106.884 17.8685 106.884 19.65H107.884C107.884 17.7515 107.529 16.1549 106.779 14.8944L105.919 15.4056ZM106.884 19.65C106.884 21.3679 106.551 22.7426 105.919 23.8044L106.779 24.3156C107.527 23.0574 107.884 21.4921 107.884 19.65H106.884ZM105.919 23.8055C105.285 24.878 104.449 25.6691 103.409 26.1936L103.859 27.0864C105.08 26.4709 106.054 25.542 106.78 24.3145L105.919 23.8055ZM103.412 26.192C102.355 26.7157 101.197 26.98 99.9291 26.98V27.98C101.341 27.98 102.653 27.6843 103.856 27.088L103.412 26.192ZM99.7491 23.795C100.3 23.795 100.829 23.6501 101.328 23.3716L100.84 22.4984C100.48 22.6999 100.118 22.795 99.7491 22.795V23.795ZM101.324 23.3739C101.864 23.0794 102.291 22.6166 102.618 22.02L101.741 21.54C101.487 22.0034 101.185 22.3106 100.845 22.4961L101.324 23.3739ZM102.62 22.0166C102.962 21.379 103.114 20.5789 103.114 19.65H102.114C102.114 20.4811 101.976 21.101 101.739 21.5434L102.62 22.0166ZM103.114 19.65C103.114 18.2492 102.869 17.1274 102.255 16.4257L101.503 17.0843C101.869 17.5026 102.114 18.3108 102.114 19.65H103.114ZM102.255 16.4257C101.679 15.7668 100.956 15.415 100.109 15.415V16.415C100.643 16.415 101.099 16.6231 101.503 17.0843L102.255 16.4257ZM100.109 15.415C99.5588 15.415 99.02 15.5593 98.4979 15.8317L98.9604 16.7183C99.3583 16.5107 99.7395 16.415 100.109 16.415V15.415ZM98.4938 15.8338C97.9399 16.1293 97.5012 16.6046 97.1652 17.2206L98.0431 17.6994C98.3071 17.2154 98.6184 16.9007 98.9644 16.7162L98.4938 15.8338ZM97.1636 17.2234C96.8199 17.8636 96.6691 18.6855 96.6691 19.65H97.6691C97.6691 18.7745 97.8084 18.1364 98.0446 17.6966L97.1636 17.2234ZM96.6691 19.65C96.6691 21.0174 96.9262 22.1184 97.5675 22.81L98.3008 22.13C97.9221 21.7216 97.6691 20.9426 97.6691 19.65H96.6691ZM97.5708 22.8135C98.1751 23.4527 98.9075 23.795 99.7491 23.795V22.795C99.2107 22.795 98.7332 22.5873 98.2975 22.1265L97.5708 22.8135ZM113.667 26.49L113.396 26.9104L113.4 26.9133L113.667 26.49ZM111.192 23.7L110.746 23.9266L110.747 23.9281L111.192 23.7ZM111.147 15.45L111.594 15.6736L111.595 15.6721L111.147 15.45ZM113.502 12.72L113.776 13.138L113.776 13.138L113.502 12.72ZM119.667 12.54L119.386 12.9536L119.389 12.956L119.667 12.54ZM121.437 14.91L120.969 15.0865L120.971 15.0919L121.437 14.91ZM122.052 18.87V19.37H122.552V18.87H122.052ZM120.717 18.87H120.217V19.37H120.717V18.87ZM120.342 17.415L119.907 17.6631L119.911 17.6692L119.915 17.6753L120.342 17.415ZM116.427 16.545L116.149 16.129L116.145 16.1319L116.427 16.545ZM115.422 17.775L115.879 17.9773L115.879 17.9773L115.422 17.775ZM115.422 21.36L114.961 21.556L114.965 21.5631L115.422 21.36ZM116.442 22.635L116.154 23.0437L116.154 23.0437L116.442 22.635ZM119.307 22.71L119.574 23.1323L119.577 23.1306L119.307 22.71ZM120.327 21.645L120.757 21.8994L120.757 21.8994L120.327 21.645ZM120.717 20.205V19.705H120.217V20.205H120.717ZM122.052 20.205H122.552V19.705H122.052V20.205ZM121.362 24.33L120.902 24.1341L120.901 24.1362L121.362 24.33ZM119.562 26.715L119.845 27.1267L119.846 27.1259L119.562 26.715ZM121.662 27L121.176 27.119L121.269 27.5H121.662V27ZM120.717 23.145H120.217V23.2054L120.231 23.264L120.717 23.145ZM120.717 6.3V5.8H120.217V6.3H120.717ZM125.577 6.3H126.077V5.8H125.577V6.3ZM125.577 27V27.5H126.077V27H125.577ZM117.162 26.98C115.973 26.98 114.9 26.6749 113.933 26.0667L113.4 26.9133C114.533 27.6251 115.791 27.98 117.162 27.98V26.98ZM113.937 26.0697C112.977 25.4511 112.21 24.5902 111.637 23.4719L110.747 23.9281C111.393 25.1898 112.276 26.1889 113.396 26.9103L113.937 26.0697ZM111.637 23.4734C111.069 22.3549 110.777 21.0449 110.777 19.53H109.777C109.777 21.1751 110.094 22.6451 110.746 23.9266L111.637 23.4734ZM110.777 19.53C110.777 18.032 111.055 16.7515 111.594 15.6736L110.699 15.2264C110.078 16.4685 109.777 17.9079 109.777 19.53H110.777ZM111.595 15.6721C112.139 14.5732 112.868 13.7343 113.776 13.138L113.227 12.302C112.155 13.0057 111.314 13.9868 110.699 15.2279L111.595 15.6721ZM113.776 13.138C114.681 12.5436 115.695 12.245 116.832 12.245V11.245C115.508 11.245 114.302 11.5964 113.227 12.302L113.776 13.138ZM116.832 12.245C117.86 12.245 118.702 12.4893 119.386 12.9536L119.948 12.1264C119.071 11.5307 118.024 11.245 116.832 11.245V12.245ZM119.389 12.956C120.065 13.4068 120.598 14.1035 120.969 15.0865L121.904 14.7335C121.475 13.5965 120.828 12.7132 119.944 12.124L119.389 12.956ZM120.971 15.0919C121.351 16.0654 121.552 17.3186 121.552 18.87H122.552C122.552 17.2414 122.342 15.8546 121.902 14.7281L120.971 15.0919ZM122.052 18.37H120.717V19.37H122.052V18.37ZM121.217 18.87C121.217 18.2336 121.074 17.6553 120.768 17.1547L119.915 17.6753C120.109 17.9946 120.217 18.3863 120.217 18.87H121.217ZM120.776 17.1669C120.494 16.6737 120.112 16.283 119.631 16.0065L119.132 16.8735C119.452 17.057 119.709 17.3163 119.907 17.6631L120.776 17.1669ZM119.631 16.0065C119.15 15.7302 118.618 15.595 118.047 15.595V16.595C118.455 16.595 118.813 16.6898 119.132 16.8735L119.631 16.0065ZM118.047 15.595C117.335 15.595 116.694 15.7657 116.149 16.129L116.704 16.961C117.059 16.7243 117.499 16.595 118.047 16.595V15.595ZM116.145 16.1319C115.623 16.488 115.229 16.9735 114.964 17.5727L115.879 17.9773C116.074 17.5365 116.351 17.202 116.708 16.9581L116.145 16.1319ZM114.964 17.5727C114.702 18.165 114.577 18.8203 114.577 19.53H115.577C115.577 18.9397 115.681 18.425 115.879 17.9773L114.964 17.5727ZM114.577 19.53C114.577 20.2668 114.701 20.9449 114.962 21.5559L115.882 21.1641C115.682 20.6951 115.577 20.1532 115.577 19.53H114.577ZM114.965 21.5631C115.238 22.1773 115.633 22.6767 116.154 23.0437L116.73 22.2263C116.371 21.9733 116.085 21.6227 115.878 21.1569L114.965 21.5631ZM116.154 23.0437C116.686 23.4188 117.304 23.6 117.987 23.6V22.6C117.489 22.6 117.077 22.4712 116.73 22.2263L116.154 23.0437ZM117.987 23.6C118.555 23.6 119.087 23.4413 119.574 23.1323L119.039 22.2877C118.706 22.4987 118.359 22.6 117.987 22.6V23.6ZM119.577 23.1306C120.064 22.8174 120.458 22.4049 120.757 21.8994L119.896 21.3906C119.675 21.7651 119.389 22.0626 119.036 22.2894L119.577 23.1306ZM120.757 21.8994C121.063 21.3809 121.217 20.8128 121.217 20.205H120.217C120.217 20.6372 120.11 21.0291 119.896 21.3906L120.757 21.8994ZM120.717 20.705H122.052V19.705H120.717V20.705ZM121.552 20.205C121.552 21.834 121.327 23.1364 120.902 24.1341L121.822 24.5259C122.317 23.3636 122.552 21.916 122.552 20.205H121.552ZM120.901 24.1362C120.478 25.1422 119.93 25.8512 119.277 26.3041L119.846 27.1259C120.693 26.5388 121.346 25.6578 121.822 24.5238L120.901 24.1362ZM119.278 26.3033C118.617 26.7585 117.915 26.98 117.162 26.98V27.98C118.128 27.98 119.026 27.6915 119.845 27.1267L119.278 26.3033ZM122.147 26.881L121.202 23.026L120.231 23.264L121.176 27.119L122.147 26.881ZM121.217 23.145V6.3H120.217V23.145H121.217ZM120.717 6.8H125.577V5.8H120.717V6.8ZM125.077 6.3V27H126.077V6.3H125.077ZM125.577 26.5H121.662V27.5H125.577V26.5ZM141.454 26.49L141.183 26.9104L141.188 26.9133L141.454 26.49ZM138.979 23.7L138.533 23.9266L138.534 23.9281L138.979 23.7ZM138.934 15.45L139.381 15.6736L139.382 15.6721L138.934 15.45ZM141.289 12.72L141.563 13.138L141.563 13.138L141.289 12.72ZM147.454 12.54L147.173 12.9536L147.177 12.956L147.454 12.54ZM149.224 14.91L148.756 15.0865L148.758 15.0919L149.224 14.91ZM149.839 18.87V19.37H150.339V18.87H149.839ZM148.504 18.87H148.004V19.37H148.504V18.87ZM148.129 17.415L147.695 17.6631L147.698 17.6692L147.702 17.6753L148.129 17.415ZM144.214 16.545L143.937 16.129L143.932 16.1319L144.214 16.545ZM143.209 17.775L143.666 17.9773L143.666 17.9773L143.209 17.775ZM143.209 21.36L142.749 21.556L142.752 21.5631L143.209 21.36ZM144.229 22.635L143.941 23.0437L143.941 23.0437L144.229 22.635ZM147.094 22.71L147.362 23.1323L147.364 23.1306L147.094 22.71ZM148.114 21.645L148.545 21.8994L148.545 21.8994L148.114 21.645ZM148.504 20.205V19.705H148.004V20.205H148.504ZM149.839 20.205H150.339V19.705H149.839V20.205ZM149.149 24.33L148.689 24.1341L148.688 24.1362L149.149 24.33ZM147.349 26.715L147.633 27.1267L147.634 27.1259L147.349 26.715ZM149.449 27L148.963 27.119L149.057 27.5H149.449V27ZM148.504 23.145H148.004V23.2054L148.018 23.264L148.504 23.145ZM148.504 6.3V5.8H148.004V6.3H148.504ZM153.364 6.3H153.864V5.8H153.364V6.3ZM153.364 27V27.5H153.864V27H153.364ZM144.949 26.98C143.76 26.98 142.688 26.6749 141.72 26.0667L141.188 26.9133C142.32 27.6251 143.578 27.98 144.949 27.98V26.98ZM141.725 26.0697C140.765 25.4511 139.997 24.5902 139.424 23.4719L138.534 23.9281C139.181 25.1898 140.063 26.1889 141.183 26.9103L141.725 26.0697ZM139.425 23.4734C138.856 22.3549 138.564 21.0449 138.564 19.53H137.564C137.564 21.1751 137.882 22.6451 138.533 23.9266L139.425 23.4734ZM138.564 19.53C138.564 18.032 138.842 16.7515 139.381 15.6736L138.487 15.2264C137.866 16.4685 137.564 17.9079 137.564 19.53H138.564ZM139.382 15.6721C139.927 14.5732 140.655 13.7343 141.563 13.138L141.015 12.302C139.943 13.0057 139.101 13.9868 138.486 15.2279L139.382 15.6721ZM141.563 13.138C142.469 12.5436 143.483 12.245 144.619 12.245V11.245C143.296 11.245 142.089 11.5964 141.015 12.302L141.563 13.138ZM144.619 12.245C145.647 12.245 146.49 12.4893 147.173 12.9536L147.735 12.1264C146.858 11.5307 145.811 11.245 144.619 11.245V12.245ZM147.177 12.956C147.853 13.4068 148.385 14.1035 148.756 15.0865L149.692 14.7335C149.263 13.5965 148.615 12.7132 147.731 12.124L147.177 12.956ZM148.758 15.0919C149.138 16.0654 149.339 17.3186 149.339 18.87H150.339C150.339 17.2414 150.13 15.8546 149.69 14.7281L148.758 15.0919ZM149.839 18.37H148.504V19.37H149.839V18.37ZM149.004 18.87C149.004 18.2336 148.861 17.6553 148.556 17.1547L147.702 17.6753C147.897 17.9946 148.004 18.3863 148.004 18.87H149.004ZM148.563 17.1669C148.281 16.6737 147.899 16.283 147.418 16.0065L146.92 16.8735C147.239 17.057 147.497 17.3163 147.695 17.6631L148.563 17.1669ZM147.418 16.0065C146.938 15.7302 146.406 15.595 145.834 15.595V16.595C146.242 16.595 146.6 16.6898 146.92 16.8735L147.418 16.0065ZM145.834 15.595C145.122 15.595 144.482 15.7657 143.937 16.129L144.491 16.961C144.846 16.7243 145.286 16.595 145.834 16.595V15.595ZM143.932 16.1319C143.41 16.488 143.017 16.9735 142.752 17.5727L143.666 17.9773C143.861 17.5365 144.138 17.202 144.496 16.9581L143.932 16.1319ZM142.752 17.5727C142.49 18.165 142.364 18.8203 142.364 19.53H143.364C143.364 18.9397 143.468 18.425 143.666 17.9773L142.752 17.5727ZM142.364 19.53C142.364 20.2668 142.489 20.9449 142.749 21.5559L143.669 21.1641C143.469 20.6951 143.364 20.1532 143.364 19.53H142.364ZM142.752 21.5631C143.025 22.1773 143.42 22.6767 143.941 23.0437L144.517 22.2263C144.158 21.9733 143.873 21.6227 143.666 21.1569L142.752 21.5631ZM143.941 23.0437C144.473 23.4188 145.091 23.6 145.774 23.6V22.6C145.277 22.6 144.865 22.4712 144.517 22.2263L143.941 23.0437ZM145.774 23.6C146.342 23.6 146.875 23.4413 147.362 23.1323L146.826 22.2877C146.494 22.4987 146.146 22.6 145.774 22.6V23.6ZM147.364 23.1306C147.852 22.8174 148.246 22.4049 148.545 21.8994L147.684 21.3906C147.462 21.7651 147.177 22.0626 146.824 22.2894L147.364 23.1306ZM148.545 21.8994C148.851 21.3809 149.004 20.8128 149.004 20.205H148.004C148.004 20.6372 147.897 21.0291 147.684 21.3906L148.545 21.8994ZM148.504 20.705H149.839V19.705H148.504V20.705ZM149.339 20.205C149.339 21.834 149.114 23.1364 148.689 24.1341L149.609 24.5259C150.104 23.3636 150.339 21.916 150.339 20.205H149.339ZM148.688 24.1362C148.265 25.1422 147.717 25.8512 147.064 26.3041L147.634 27.1259C148.481 26.5388 149.133 25.6578 149.61 24.5238L148.688 24.1362ZM147.065 26.3033C146.405 26.7585 145.703 26.98 144.949 26.98V27.98C145.915 27.98 146.813 27.6915 147.633 27.1267L147.065 26.3033ZM149.935 26.881L148.99 23.026L148.018 23.264L148.963 27.119L149.935 26.881ZM149.004 23.145V6.3H148.004V23.145H149.004ZM148.504 6.8H153.364V5.8H148.504V6.8ZM152.864 6.3V27H153.864V6.3H152.864ZM153.364 26.5H149.449V27.5H153.364V26.5ZM159.476 9.63L159.129 9.99092L159.137 9.99796L159.476 9.63ZM159.476 5.67L159.829 6.02355L159.829 6.02355L159.476 5.67ZM163.676 5.67L163.326 6.02705L163.329 6.03055L163.676 5.67ZM163.676 9.63L164.011 10.0013L164.014 9.99768L163.676 9.63ZM159.191 27H158.691V27.5H159.191V27ZM159.191 12.135V11.635H158.691V12.135H159.191ZM163.991 12.135H164.491V11.635H163.991V12.135ZM163.991 27V27.5H164.491V27H163.991ZM161.591 9.82C160.763 9.82 160.194 9.61174 159.814 9.26203L159.137 9.99796C159.757 10.5683 160.599 10.82 161.591 10.82V9.82ZM159.822 9.26916C159.454 8.91602 159.241 8.40024 159.241 7.65H158.241C158.241 8.59975 158.518 9.40397 159.13 9.99084L159.822 9.26916ZM159.241 7.65C159.241 6.92452 159.451 6.40164 159.829 6.02355L159.122 5.31645C158.52 5.91836 158.241 6.71548 158.241 7.65H159.241ZM159.829 6.02355C160.211 5.64214 160.773 5.42 161.591 5.42V4.42C160.588 4.42 159.741 4.69786 159.122 5.31645L159.829 6.02355ZM161.591 5.42C162.372 5.42 162.93 5.63895 163.326 6.02704L164.026 5.31296C163.402 4.70105 162.569 4.42 161.591 4.42V5.42ZM163.329 6.03055C163.724 6.40989 163.941 6.93046 163.941 7.65H164.941C164.941 6.70954 164.647 5.91011 164.022 5.30945L163.329 6.03055ZM163.941 7.65C163.941 8.39425 163.722 8.90777 163.337 9.26232L164.014 9.99768C164.65 9.41223 164.941 8.60575 164.941 7.65H163.941ZM163.341 9.25871C162.946 9.61461 162.383 9.82 161.591 9.82V10.82C162.558 10.82 163.385 10.5654 164.011 10.0013L163.341 9.25871ZM159.691 27V12.135H158.691V27H159.691ZM159.191 12.635H163.991V11.635H159.191V12.635ZM163.491 12.135V27H164.491V12.135H163.491ZM163.991 26.5H159.191V27.5H163.991V26.5ZM179.497 27L179.003 27.077L179.069 27.5H179.497V27ZM178.882 23.055H178.382V23.0937L178.388 23.132L178.882 23.055ZM175.477 15.42L175.689 15.8728L175.695 15.8699L175.477 15.42ZM174.757 16.035L174.331 15.7729L174.328 15.7778L174.757 16.035ZM174.532 16.86V17.36H175.032V16.86H174.532ZM169.342 16.86H168.842V17.36H169.342V16.86ZM170.167 13.995L170.57 14.2907L170.572 14.2881L170.167 13.995ZM172.642 12.3L172.801 12.7739L172.801 12.7739L172.642 12.3ZM180.442 12.405L180.245 12.8648L180.247 12.8655L180.442 12.405ZM182.842 14.385L183.264 14.1166L183.264 14.1166L182.842 14.385ZM183.682 27V27.5H184.182V27H183.682ZM171.502 26.82L171.278 27.2673L171.284 27.2701L171.502 26.82ZM169.462 25.005L169.89 24.7461L169.89 24.7461L169.462 25.005ZM169.492 20.235L169.89 20.538L169.892 20.535L169.492 20.235ZM171.622 18.75L171.449 18.2808L171.447 18.2814L171.622 18.75ZM177.337 18.36L177.267 18.8551L177.268 18.8553L177.337 18.36ZM179.332 18.69H179.832V18.2765L179.426 18.1989L179.332 18.69ZM179.332 21.39L179.224 21.8783L179.832 22.012V21.39H179.332ZM177.772 21.135L177.716 21.6318L177.717 21.6319L177.772 21.135ZM174.517 21.39L174.753 21.8306L174.757 21.8285L174.517 21.39ZM174.457 23.46L174.155 23.8588L174.162 23.8639L174.457 23.46ZM177.817 23.46L177.532 23.0489L177.532 23.0489L177.817 23.46ZM178.642 22.44L178.176 22.2582L178.176 22.2582L178.642 22.44ZM178.882 21.225V20.725H178.382V21.225H178.882ZM180.007 21.225H180.507V20.725H180.007V21.225ZM177.787 26.64L178.083 27.0425L178.087 27.04L177.787 26.64ZM179.991 26.923L179.376 22.978L178.388 23.132L179.003 27.077L179.991 26.923ZM179.382 23.055V17.52H178.382V23.055H179.382ZM179.382 17.52C179.382 16.7286 179.239 16.0433 178.894 15.52L178.059 16.07C178.255 16.3667 178.382 16.8314 178.382 17.52H179.382ZM178.894 15.52C178.478 14.8874 177.669 14.68 176.752 14.68V15.68C177.594 15.68 177.936 15.8826 178.059 16.07L178.894 15.52ZM176.752 14.68C176.186 14.68 175.679 14.7663 175.259 14.9701L175.695 15.8699C175.935 15.7537 176.278 15.68 176.752 15.68V14.68ZM175.265 14.9673C174.871 15.152 174.55 15.4175 174.331 15.773L175.183 16.297C175.284 16.1325 175.443 15.988 175.689 15.8727L175.265 14.9673ZM174.328 15.7778C174.13 16.1078 174.032 16.4721 174.032 16.86H175.032C175.032 16.6479 175.084 16.4622 175.186 16.2922L174.328 15.7778ZM174.532 16.36H169.342V17.36H174.532V16.36ZM169.842 16.86C169.842 15.7797 170.097 14.9357 170.57 14.2907L169.764 13.6993C169.137 14.5543 168.842 15.6203 168.842 16.86H169.842ZM170.572 14.2881C171.048 13.6307 171.776 13.1187 172.801 12.7739L172.482 11.8261C171.307 12.2213 170.386 12.8393 169.762 13.7019L170.572 14.2881ZM172.801 12.7739C173.834 12.4267 175.146 12.245 176.752 12.245V11.245C175.078 11.245 173.65 11.4333 172.482 11.8261L172.801 12.7739ZM176.752 12.245C178.132 12.245 179.292 12.4576 180.245 12.8648L180.638 11.9452C179.532 11.4724 178.231 11.245 176.752 11.245V12.245ZM180.247 12.8655C181.202 13.2694 181.919 13.8661 182.42 14.6534L183.264 14.1166C182.645 13.1439 181.762 12.4206 180.637 11.9445L180.247 12.8655ZM182.42 14.6534C182.917 15.4338 183.182 16.4392 183.182 17.7H184.182C184.182 16.3008 183.887 15.0962 183.264 14.1166L182.42 14.6534ZM183.182 17.7V27H184.182V17.7H183.182ZM183.682 26.5H179.497V27.5H183.682V26.5ZM174.847 26.98C173.58 26.98 172.544 26.7686 171.72 26.3699L171.284 27.2701C172.28 27.7514 173.474 27.98 174.847 27.98V26.98ZM171.725 26.3728C170.898 25.9593 170.294 25.415 169.89 24.7461L169.034 25.2639C169.549 26.115 170.305 26.7807 171.278 27.2672L171.725 26.3728ZM169.89 24.7461C169.479 24.0671 169.272 23.3171 169.272 22.485H168.272C168.272 23.4929 168.525 24.4229 169.034 25.2639L169.89 24.7461ZM169.272 22.485C169.272 21.7131 169.483 21.0723 169.89 20.538L169.094 19.932C168.541 20.6577 168.272 21.5169 168.272 22.485H169.272ZM169.892 20.535C170.301 19.989 170.923 19.5436 171.796 19.2186L171.447 18.2814C170.44 18.6564 169.642 19.201 169.092 19.935L169.892 20.535ZM171.795 19.2192C172.673 18.8955 173.776 18.725 175.117 18.725V17.725C173.698 17.725 172.47 17.9045 171.449 18.2808L171.795 19.2192ZM175.117 18.725C175.94 18.725 176.656 18.7692 177.267 18.8551L177.407 17.8649C176.738 17.7708 175.974 17.725 175.117 17.725V18.725ZM177.268 18.8553C177.909 18.944 178.566 19.0526 179.238 19.1811L179.426 18.1989C178.738 18.0674 178.064 17.956 177.405 17.8647L177.268 18.8553ZM178.832 18.69V21.39H179.832V18.69H178.832ZM179.439 20.9017C178.921 20.7877 178.384 20.6999 177.827 20.6381L177.717 21.6319C178.24 21.6901 178.743 21.7723 179.224 21.8783L179.439 20.9017ZM177.828 20.6382C177.28 20.5762 176.742 20.545 176.212 20.545V21.545C176.702 21.545 177.203 21.5738 177.716 21.6318L177.828 20.6382ZM176.212 20.545C175.455 20.545 174.797 20.6663 174.277 20.9515L174.757 21.8285C175.076 21.6537 175.548 21.545 176.212 21.545V20.545ZM174.28 20.9494C174.001 21.0992 173.774 21.3095 173.62 21.5839C173.467 21.8559 173.402 22.1628 173.402 22.485H174.402C174.402 22.2972 174.439 22.1666 174.492 22.0736C174.542 21.983 174.622 21.9008 174.753 21.8306L174.28 20.9494ZM173.402 22.485C173.402 23.0509 173.695 23.5108 174.155 23.8587L174.759 23.0613C174.478 22.8492 174.402 22.6591 174.402 22.485H173.402ZM174.162 23.8639C174.661 24.2279 175.376 24.365 176.212 24.365V23.365C175.448 23.365 174.993 23.2321 174.752 23.0561L174.162 23.8639ZM176.212 24.365C176.951 24.365 177.599 24.2191 178.101 23.8711L177.532 23.0489C177.255 23.2409 176.832 23.365 176.212 23.365V24.365ZM178.101 23.8711C178.567 23.549 178.909 23.1318 179.108 22.6218L178.176 22.2582C178.055 22.5682 177.847 22.831 177.532 23.0489L178.101 23.8711ZM179.108 22.6218C179.288 22.1597 179.382 21.6931 179.382 21.225H178.382C178.382 21.5569 178.316 21.9003 178.176 22.2582L179.108 22.6218ZM178.882 21.725H180.007V20.725H178.882V21.725ZM179.507 21.225C179.507 22.3118 179.335 23.2959 178.999 24.1828L179.934 24.5372C180.318 23.5241 180.507 22.4182 180.507 21.225H179.507ZM178.999 24.1828C178.67 25.0506 178.166 25.7309 177.487 26.24L178.087 27.04C178.928 26.4091 179.543 25.5694 179.934 24.5372L178.999 24.1828ZM177.49 26.2375C176.837 26.7188 175.969 26.98 174.847 26.98V27.98C176.124 27.98 177.217 27.6812 178.083 27.0425L177.49 26.2375ZM188.74 27H188.24V27.5H188.74V27ZM188.74 12.135V11.635H188.24V12.135H188.74ZM193.54 12.135H194.04V11.635H193.54V12.135ZM193.54 27V27.5H194.04V27H193.54ZM192.52 20.7H192.02V21.2H192.52V20.7ZM193.285 15.75L193.75 15.9338L193.75 15.9338L193.285 15.75ZM198.085 11.985L198.023 12.4811L198.038 12.4831L198.053 12.484L198.085 11.985ZM198.535 12.045L199.035 12.0403L199.031 11.64L198.639 11.5561L198.535 12.045ZM198.58 16.875L198.52 17.3714L199.085 17.4392L199.08 16.8703L198.58 16.875ZM197.815 16.815L197.776 17.3135L197.786 17.3143L197.795 17.3146L197.815 16.815ZM195.22 17.175L195.003 16.7245L194.999 16.7261L195.22 17.175ZM193.975 18.42L193.532 18.1871L193.529 18.1933L193.975 18.42ZM193.54 20.7V21.2H194.04V20.7H193.54ZM189.24 27V12.135H188.24V27H189.24ZM188.74 12.635H193.54V11.635H188.74V12.635ZM193.04 12.135V27H194.04V12.135H193.04ZM193.54 26.5H188.74V27.5H193.54V26.5ZM193.02 20.7C193.02 18.7271 193.271 17.1453 193.75 15.9338L192.82 15.5662C192.279 16.9347 192.02 18.6529 192.02 20.7H193.02ZM193.75 15.9338C194.239 14.6949 194.841 13.8246 195.531 13.2764L194.909 12.4936C194.038 13.1854 193.35 14.2251 192.82 15.5662L193.75 15.9338ZM195.531 13.2764C196.243 12.7101 196.932 12.455 197.605 12.455V11.455C196.658 11.455 195.756 11.8199 194.909 12.4936L195.531 13.2764ZM197.605 12.455C197.744 12.455 197.883 12.4637 198.023 12.4811L198.147 11.4889C197.966 11.4663 197.786 11.455 197.605 11.455V12.455ZM198.053 12.484C198.192 12.4927 198.317 12.5097 198.43 12.5339L198.639 11.5561C198.473 11.5203 198.298 11.4973 198.116 11.486L198.053 12.484ZM198.035 12.0497L198.08 16.8797L199.08 16.8703L199.035 12.0403L198.035 12.0497ZM198.639 16.3786C198.375 16.3469 198.107 16.3259 197.834 16.3154L197.795 17.3146C198.042 17.3241 198.284 17.3431 198.52 17.3714L198.639 16.3786ZM197.853 16.3165C197.582 16.2956 197.324 16.285 197.08 16.285V17.285C197.295 17.285 197.527 17.2944 197.776 17.3135L197.853 16.3165ZM197.08 16.285C196.317 16.285 195.621 16.4269 195.003 16.7245L195.437 17.6255C195.898 17.4031 196.442 17.285 197.08 17.285V16.285ZM194.999 16.7261C194.366 17.037 193.877 17.5324 193.532 18.1871L194.417 18.6529C194.673 18.1676 195.014 17.833 195.44 17.6239L194.999 16.7261ZM193.529 18.1933C193.19 18.8593 193.04 19.7064 193.04 20.7H194.04C194.04 19.7936 194.179 19.1207 194.42 18.6467L193.529 18.1933ZM193.54 20.2H192.52V21.2H193.54V20.2ZM202.524 12.225V11.725H201.79L202.059 12.4082L202.524 12.225ZM208.014 12.225L208.495 12.0873L208.391 11.725H208.014V12.225ZM211.044 22.8V23.3H211.708L211.525 22.6623L211.044 22.8ZM210.309 22.8L209.828 22.6629L209.647 23.3H210.309V22.8ZM213.324 12.225V11.725H212.947L212.843 12.0879L213.324 12.225ZM218.184 12.225L218.658 12.3841L218.879 11.725H218.184V12.225ZM212.424 29.385L212.897 29.5487L212.898 29.5441L212.424 29.385ZM209.979 33.555L209.663 33.1678L209.661 33.1695L209.979 33.555ZM204.489 34.485L204.58 33.9932L204.575 33.9923L204.489 34.485ZM202.239 33.825H201.739V34.1594L202.048 34.2871L202.239 33.825ZM202.239 29.7L202.45 29.2465L201.739 28.9166V29.7H202.239ZM203.874 30.285L204 29.801L203.993 29.7994L203.874 30.285ZM206.409 30.3L206.223 29.8358L206.217 29.8384L206.21 29.8412L206.409 30.3ZM207.234 29.655L206.845 29.3411L206.845 29.3411L207.234 29.655ZM207.864 28.38L207.392 28.2157L207.389 28.2228L207.387 28.2299L207.864 28.38ZM208.344 27L208.816 27.1643L208.877 26.9892L208.809 26.8168L208.344 27ZM202.524 12.725H208.014V11.725H202.524V12.725ZM207.533 12.3627L210.563 22.9377L211.525 22.6623L208.495 12.0873L207.533 12.3627ZM211.044 22.3H210.309V23.3H211.044V22.3ZM210.79 22.9371L213.805 12.3621L212.843 12.0879L209.828 22.6629L210.79 22.9371ZM213.324 12.725H218.184V11.725H213.324V12.725ZM217.71 12.0659L211.95 29.2259L212.898 29.5441L218.658 12.3841L217.71 12.0659ZM211.952 29.2213C211.262 31.2129 210.484 32.4963 209.663 33.1678L210.296 33.9422C211.334 33.0937 212.187 31.5971 212.897 29.5487L211.952 29.2213ZM209.661 33.1695C208.833 33.8531 207.872 34.195 206.754 34.195V35.195C208.096 35.195 209.285 34.7769 210.298 33.9405L209.661 33.1695ZM206.754 34.195C206.035 34.195 205.311 34.1279 204.58 33.9933L204.399 34.9767C205.188 35.1221 205.973 35.195 206.754 35.195V34.195ZM204.575 33.9923C203.863 33.869 203.148 33.6598 202.43 33.3629L202.048 34.2871C202.83 34.6102 203.615 34.841 204.404 34.9777L204.575 33.9923ZM202.739 33.825V29.7H201.739V33.825H202.739ZM202.029 30.1535C202.614 30.4254 203.19 30.632 203.755 30.7706L203.993 29.7994C203.498 29.678 202.984 29.4946 202.45 29.2465L202.029 30.1535ZM203.749 30.769C204.326 30.9186 204.893 30.995 205.449 30.995V29.995C204.985 29.995 204.502 29.9314 204 29.801L203.749 30.769ZM205.449 30.995C205.855 30.995 206.243 30.9171 206.608 30.7588L206.21 29.8412C205.976 29.9429 205.724 29.995 205.449 29.995V30.995ZM206.595 30.7642C206.991 30.6058 207.332 30.3302 207.623 29.9689L206.845 29.3411C206.636 29.5998 206.427 29.7542 206.223 29.8358L206.595 30.7642ZM207.623 29.9689C207.925 29.5944 208.16 29.1066 208.341 28.5301L207.387 28.2299C207.229 28.7334 207.043 29.0956 206.845 29.3411L207.623 29.9689ZM208.336 28.5443L208.816 27.1643L207.872 26.8357L207.392 28.2157L208.336 28.5443ZM208.809 26.8168L202.989 12.0417L202.059 12.4082L207.879 27.1832L208.809 26.8168Z" fill="white" mask="url(#path-1-outside-1_112_26)"/>
<path d="M27.4125 13.6825C26.9366 11.2355 25.6383 9.03198 23.7392 7.44842C21.8401 5.86485 19.4581 4.99944 17 5C12.9058 5 9.35 7.3575 7.57917 10.8075C5.497 11.0358 3.57143 12.0369 2.17244 13.6183C0.773459 15.1997 -0.000243244 17.2499 5.73647e-08 19.375C5.73647e-08 24.1331 3.81083 28 8.5 28H26.9167C30.8267 28 34 24.78 34 20.8125C34 17.0175 31.0958 13.9412 27.4125 13.6825Z" fill="white"/>
</svg>
