<svg xmlns="http://www.w3.org/2000/svg" width="34" height="34" viewBox="0 0 34 34" fill="none">
<path fill-rule="evenodd" clip-rule="evenodd" d="M0 19.6153C0 15.8003 1.51552 12.1415 4.21316 9.44387C6.91079 6.74623 10.5696 5.23071 14.3846 5.23071C14.7314 5.23071 15.0641 5.36849 15.3093 5.61373C15.5545 5.85897 15.6923 6.19158 15.6923 6.53841V18.3076H27.4615C27.8084 18.3076 28.141 18.4454 28.3862 18.6907C28.6315 18.9359 28.7692 19.2685 28.7692 19.6153C28.7692 23.4304 27.2537 27.0891 24.5561 29.7868C21.8584 32.4844 18.1997 33.9999 14.3846 33.9999C10.5696 33.9999 6.91079 32.4844 4.21316 29.7868C1.51552 27.0891 0 23.4304 0 19.6153Z" fill="white"/>
<path fill-rule="evenodd" clip-rule="evenodd" d="M18.3075 1.30769C18.3075 0.960871 18.4453 0.628254 18.6905 0.383014C18.9357 0.137774 19.2684 0 19.6152 0C23.4302 0 27.089 1.51552 29.7866 4.21316C32.4843 6.91079 33.9998 10.5696 33.9998 14.3846C33.9998 14.7314 33.862 15.0641 33.6168 15.3093C33.3715 15.5545 33.0389 15.6923 32.6921 15.6923H19.6152C19.2684 15.6923 18.9357 15.5545 18.6905 15.3093C18.4453 15.0641 18.3075 14.7314 18.3075 14.3846V1.30769Z" fill="#626262"/>
</svg>