<svg width="91" height="17" viewBox="0 0 91 17" fill="none" xmlns="http://www.w3.org/2000/svg">
<mask id="path-1-outside-1_128_51" maskUnits="userSpaceOnUse" x="-1" y="-1" width="93" height="18" fill="black">
<rect fill="white" x="-1" y="-1" width="93" height="18"/>
<path d="M0.232 0.423999H4.288L8.68 9.952H8.44L12.832 0.423999H16.744V16H13.888V3.688H14.32L9.472 14.296H7.624L2.8 3.736H3.064V16H0.232V0.423999ZM19.3846 0.423999H22.7446L26.4646 7.12H25.9126L29.7766 0.423999H33.1126L27.5686 9.568V16H24.7366V9.568L19.3846 0.423999ZM35.7025 16V0.423999H41.1985C42.9505 0.423999 44.3145 0.855999 45.2905 1.72C46.2745 2.584 46.7665 3.808 46.7665 5.392C46.7665 6.96 46.2745 8.176 45.2905 9.04C44.3145 9.904 42.9505 10.336 41.1985 10.336H38.5585V16H35.7025ZM38.5585 7.864H41.1985C42.0785 7.864 42.7425 7.632 43.1905 7.168C43.6385 6.704 43.8625 6.112 43.8625 5.392C43.8625 4.656 43.6385 4.052 43.1905 3.58C42.7425 3.108 42.0785 2.872 41.1985 2.872H38.5585V7.864ZM47.248 16L52.552 0.423999H56.104L61.192 16H58.216L57.136 12.64H51.352L50.248 16H47.248ZM52.072 10.504H56.464L54.28 3.808L52.072 10.504ZM69.9034 16.336C68.6314 16.336 67.4834 16 66.4594 15.328C65.4354 14.656 64.6194 13.72 64.0114 12.52C63.4114 11.312 63.1114 9.904 63.1114 8.296C63.1114 7.024 63.2954 5.884 63.6634 4.876C64.0394 3.868 64.5594 3.008 65.2234 2.296C65.8874 1.584 66.6674 1.044 67.5634 0.675999C68.4594 0.299999 69.4314 0.111999 70.4794 0.111999C71.9354 0.111999 73.1554 0.427999 74.1394 1.06C75.1314 1.692 75.9034 2.688 76.4554 4.048L73.5514 4.72C73.1434 4.056 72.6714 3.552 72.1354 3.208C71.6074 2.856 71.0074 2.68 70.3354 2.68C69.5674 2.68 68.8674 2.908 68.2354 3.364C67.6034 3.812 67.0994 4.456 66.7234 5.296C66.3474 6.136 66.1594 7.136 66.1594 8.296C66.1594 9.384 66.3234 10.336 66.6514 11.152C66.9874 11.968 67.4554 12.604 68.0554 13.06C68.6554 13.516 69.3514 13.744 70.1434 13.744C70.8154 13.744 71.4154 13.596 71.9434 13.3C72.4794 12.996 72.8994 12.564 73.2034 12.004C73.5154 11.444 73.6714 10.768 73.6714 9.976H74.2954C74.2954 11.272 74.1394 12.396 73.8274 13.348C73.5234 14.3 73.0474 15.036 72.3994 15.556C71.7514 16.076 70.9194 16.336 69.9034 16.336ZM74.0794 16L73.6714 12.568V9.88L70.1674 9.808V8.008H76.3834V16H74.0794ZM80.6736 16V0.423999H90.6816V2.872H83.5056V6.976H90.2496V9.424H83.5056V13.528H90.6816V16H80.6736Z"/>
</mask>
<path d="M0.232 0.423999H4.288L8.68 9.952H8.44L12.832 0.423999H16.744V16H13.888V3.688H14.32L9.472 14.296H7.624L2.8 3.736H3.064V16H0.232V0.423999ZM19.3846 0.423999H22.7446L26.4646 7.12H25.9126L29.7766 0.423999H33.1126L27.5686 9.568V16H24.7366V9.568L19.3846 0.423999ZM35.7025 16V0.423999H41.1985C42.9505 0.423999 44.3145 0.855999 45.2905 1.72C46.2745 2.584 46.7665 3.808 46.7665 5.392C46.7665 6.96 46.2745 8.176 45.2905 9.04C44.3145 9.904 42.9505 10.336 41.1985 10.336H38.5585V16H35.7025ZM38.5585 7.864H41.1985C42.0785 7.864 42.7425 7.632 43.1905 7.168C43.6385 6.704 43.8625 6.112 43.8625 5.392C43.8625 4.656 43.6385 4.052 43.1905 3.58C42.7425 3.108 42.0785 2.872 41.1985 2.872H38.5585V7.864ZM47.248 16L52.552 0.423999H56.104L61.192 16H58.216L57.136 12.64H51.352L50.248 16H47.248ZM52.072 10.504H56.464L54.28 3.808L52.072 10.504ZM69.9034 16.336C68.6314 16.336 67.4834 16 66.4594 15.328C65.4354 14.656 64.6194 13.72 64.0114 12.52C63.4114 11.312 63.1114 9.904 63.1114 8.296C63.1114 7.024 63.2954 5.884 63.6634 4.876C64.0394 3.868 64.5594 3.008 65.2234 2.296C65.8874 1.584 66.6674 1.044 67.5634 0.675999C68.4594 0.299999 69.4314 0.111999 70.4794 0.111999C71.9354 0.111999 73.1554 0.427999 74.1394 1.06C75.1314 1.692 75.9034 2.688 76.4554 4.048L73.5514 4.72C73.1434 4.056 72.6714 3.552 72.1354 3.208C71.6074 2.856 71.0074 2.68 70.3354 2.68C69.5674 2.68 68.8674 2.908 68.2354 3.364C67.6034 3.812 67.0994 4.456 66.7234 5.296C66.3474 6.136 66.1594 7.136 66.1594 8.296C66.1594 9.384 66.3234 10.336 66.6514 11.152C66.9874 11.968 67.4554 12.604 68.0554 13.06C68.6554 13.516 69.3514 13.744 70.1434 13.744C70.8154 13.744 71.4154 13.596 71.9434 13.3C72.4794 12.996 72.8994 12.564 73.2034 12.004C73.5154 11.444 73.6714 10.768 73.6714 9.976H74.2954C74.2954 11.272 74.1394 12.396 73.8274 13.348C73.5234 14.3 73.0474 15.036 72.3994 15.556C71.7514 16.076 70.9194 16.336 69.9034 16.336ZM74.0794 16L73.6714 12.568V9.88L70.1674 9.808V8.008H76.3834V16H74.0794ZM80.6736 16V0.423999H90.6816V2.872H83.5056V6.976H90.2496V9.424H83.5056V13.528H90.6816V16H80.6736Z" fill="white"/>
<path d="M0.232 0.423999V-0.0760012H-0.268V0.423999H0.232ZM4.288 0.423999L4.74208 0.214687L4.60809 -0.0760012H4.288V0.423999ZM8.68 9.952V10.452H9.46104L9.13408 9.74269L8.68 9.952ZM8.44 9.952L7.98592 9.74269L7.65896 10.452H8.44V9.952ZM12.832 0.423999V-0.0760012H12.5119L12.3779 0.214687L12.832 0.423999ZM16.744 0.423999H17.244V-0.0760012H16.744V0.423999ZM16.744 16V16.5H17.244V16H16.744ZM13.888 16H13.388V16.5H13.888V16ZM13.888 3.688V3.188H13.388V3.688H13.888ZM14.32 3.688L14.7748 3.89583L15.0982 3.188H14.32V3.688ZM9.472 14.296V14.796H9.79323L9.92676 14.5038L9.472 14.296ZM7.624 14.296L7.16921 14.5038L7.30271 14.796H7.624V14.296ZM2.8 3.736V3.236H2.02189L2.34521 3.94376L2.8 3.736ZM3.064 3.736H3.564V3.236H3.064V3.736ZM3.064 16V16.5H3.564V16H3.064ZM0.232 16H-0.268V16.5H0.232V16ZM0.232 0.923999H4.288V-0.0760012H0.232V0.923999ZM3.83392 0.63331L8.22592 10.1613L9.13408 9.74269L4.74208 0.214687L3.83392 0.63331ZM8.68 9.452H8.44V10.452H8.68V9.452ZM8.89408 10.1613L13.2861 0.63331L12.3779 0.214687L7.98592 9.74269L8.89408 10.1613ZM12.832 0.923999H16.744V-0.0760012H12.832V0.923999ZM16.244 0.423999V16H17.244V0.423999H16.244ZM16.744 15.5H13.888V16.5H16.744V15.5ZM14.388 16V3.688H13.388V16H14.388ZM13.888 4.188H14.32V3.188H13.888V4.188ZM13.8652 3.48017L9.01724 14.0882L9.92676 14.5038L14.7748 3.89583L13.8652 3.48017ZM9.472 13.796H7.624V14.796H9.472V13.796ZM8.07879 14.0882L3.25479 3.52824L2.34521 3.94376L7.16921 14.5038L8.07879 14.0882ZM2.8 4.236H3.064V3.236H2.8V4.236ZM2.564 3.736V16H3.564V3.736H2.564ZM3.064 15.5H0.232V16.5H3.064V15.5ZM0.732 16V0.423999H-0.268V16H0.732ZM19.3846 0.423999V-0.0760012H18.5126L18.953 0.676568L19.3846 0.423999ZM22.7446 0.423999L23.1816 0.181177L23.0388 -0.0760012H22.7446V0.423999ZM26.4646 7.12V7.62H27.3143L26.9016 6.87718L26.4646 7.12ZM25.9126 7.12L25.4795 6.87009L25.0468 7.62H25.9126V7.12ZM29.7766 0.423999V-0.0760012H29.4878L29.3435 0.174093L29.7766 0.423999ZM33.1126 0.423999L33.5401 0.683224L34.0004 -0.0760012H33.1126V0.423999ZM27.5686 9.568L27.141 9.30877L27.0686 9.42826V9.568H27.5686ZM27.5686 16V16.5H28.0686V16H27.5686ZM24.7366 16H24.2366V16.5H24.7366V16ZM24.7366 9.568H25.2366V9.43243L25.1681 9.31543L24.7366 9.568ZM19.3846 0.923999H22.7446V-0.0760012H19.3846V0.923999ZM22.3075 0.66682L26.0275 7.36282L26.9016 6.87718L23.1816 0.181177L22.3075 0.66682ZM26.4646 6.62H25.9126V7.62H26.4646V6.62ZM26.3456 7.36991L30.2096 0.673905L29.3435 0.174093L25.4795 6.87009L26.3456 7.36991ZM29.7766 0.923999H33.1126V-0.0760012H29.7766V0.923999ZM32.685 0.164773L27.141 9.30877L27.9961 9.82723L33.5401 0.683224L32.685 0.164773ZM27.0686 9.568V16H28.0686V9.568H27.0686ZM27.5686 15.5H24.7366V16.5H27.5686V15.5ZM25.2366 16V9.568H24.2366V16H25.2366ZM25.1681 9.31543L19.8161 0.17143L18.953 0.676568L24.305 9.82057L25.1681 9.31543ZM35.7025 16H35.2025V16.5H35.7025V16ZM35.7025 0.423999V-0.0760012H35.2025V0.423999H35.7025ZM45.2905 1.72L44.9591 2.09438L44.9606 2.09572L45.2905 1.72ZM45.2905 9.04L44.9606 8.66428L44.9591 8.66562L45.2905 9.04ZM38.5585 10.336V9.836H38.0585V10.336H38.5585ZM38.5585 16V16.5H39.0585V16H38.5585ZM38.5585 7.864H38.0585V8.364H38.5585V7.864ZM43.1905 7.168L42.8308 6.8207L42.8308 6.8207L43.1905 7.168ZM38.5585 2.872V2.372H38.0585V2.872H38.5585ZM36.2025 16V0.423999H35.2025V16H36.2025ZM35.7025 0.923999H41.1985V-0.0760012H35.7025V0.923999ZM41.1985 0.923999C42.8709 0.923999 44.102 1.33564 44.9591 2.09438L45.6219 1.34562C44.527 0.376354 43.0301 -0.0760012 41.1985 -0.0760012V0.923999ZM44.9606 2.09572C45.814 2.84505 46.2665 3.91899 46.2665 5.392H47.2665C47.2665 3.69701 46.735 2.32295 45.6204 1.34428L44.9606 2.09572ZM46.2665 5.392C46.2665 6.84719 45.8151 7.91395 44.9606 8.66428L45.6204 9.41572C46.7339 8.43805 47.2665 7.0728 47.2665 5.392H46.2665ZM44.9591 8.66562C44.102 9.42435 42.8709 9.836 41.1985 9.836V10.836C43.0301 10.836 44.527 10.3836 45.6219 9.41438L44.9591 8.66562ZM41.1985 9.836H38.5585V10.836H41.1985V9.836ZM38.0585 10.336V16H39.0585V10.336H38.0585ZM38.5585 15.5H35.7025V16.5H38.5585V15.5ZM38.5585 8.364H41.1985V7.364H38.5585V8.364ZM41.1985 8.364C42.1632 8.364 42.9777 8.10828 43.5502 7.5153L42.8308 6.8207C42.5073 7.15572 41.9938 7.364 41.1985 7.364V8.364ZM43.5502 7.5153C44.099 6.94692 44.3625 6.22517 44.3625 5.392H43.3625C43.3625 5.99883 43.178 6.46108 42.8308 6.8207L43.5502 7.5153ZM44.3625 5.392C44.3625 4.54604 44.1011 3.81307 43.5532 3.23579L42.8278 3.92421C43.1759 4.29093 43.3625 4.76595 43.3625 5.392H44.3625ZM43.5532 3.23579C42.9811 2.63306 42.1656 2.372 41.1985 2.372V3.372C41.9914 3.372 42.5039 3.58293 42.8278 3.92421L43.5532 3.23579ZM41.1985 2.372H38.5585V3.372H41.1985V2.372ZM38.0585 2.872V7.864H39.0585V2.872H38.0585ZM47.248 16L46.7747 15.8388L46.5495 16.5H47.248V16ZM52.552 0.423999V-0.0760012H52.1941L52.0787 0.262825L52.552 0.423999ZM56.104 0.423999L56.5793 0.268744L56.4667 -0.0760012H56.104V0.423999ZM61.192 16V16.5H61.8813L61.6673 15.8447L61.192 16ZM58.216 16L57.74 16.153L57.8515 16.5H58.216V16ZM57.136 12.64L57.612 12.487L57.5005 12.14H57.136V12.64ZM51.352 12.64V12.14H50.99L50.877 12.4839L51.352 12.64ZM50.248 16V16.5H50.61L50.723 16.1561L50.248 16ZM52.072 10.504L51.5972 10.3474L51.3806 11.004H52.072V10.504ZM56.464 10.504V11.004H57.153L56.9394 10.349L56.464 10.504ZM54.28 3.808L54.7554 3.65296L54.2826 2.20351L53.8052 3.65142L54.28 3.808ZM47.7213 16.1612L53.0253 0.585172L52.0787 0.262825L46.7747 15.8388L47.7213 16.1612ZM52.552 0.923999H56.104V-0.0760012H52.552V0.923999ZM55.6287 0.579254L60.7167 16.1553L61.6673 15.8447L56.5793 0.268744L55.6287 0.579254ZM61.192 15.5H58.216V16.5H61.192V15.5ZM58.692 15.847L57.612 12.487L56.66 12.793L57.74 16.153L58.692 15.847ZM57.136 12.14H51.352V13.14H57.136V12.14ZM50.877 12.4839L49.773 15.8439L50.723 16.1561L51.827 12.7961L50.877 12.4839ZM50.248 15.5H47.248V16.5H50.248V15.5ZM52.072 11.004H56.464V10.004H52.072V11.004ZM56.9394 10.349L54.7554 3.65296L53.8046 3.96304L55.9886 10.659L56.9394 10.349ZM53.8052 3.65142L51.5972 10.3474L52.5469 10.6606L54.7549 3.96458L53.8052 3.65142ZM66.4594 15.328L66.7338 14.91L66.4594 15.328ZM64.0114 12.52L63.5636 12.7424L63.5654 12.746L64.0114 12.52ZM63.6634 4.876L63.195 4.70125L63.1938 4.70453L63.6634 4.876ZM67.5634 0.675999L67.7534 1.13852L67.7569 1.13705L67.5634 0.675999ZM74.1394 1.06L73.8692 1.4807L73.8708 1.48169L74.1394 1.06ZM76.4554 4.048L76.5682 4.53513L77.1391 4.403L76.9187 3.85996L76.4554 4.048ZM73.5514 4.72L73.1254 4.98176L73.3137 5.28822L73.6642 5.20713L73.5514 4.72ZM72.1354 3.208L71.858 3.62409L71.8654 3.62879L72.1354 3.208ZM68.2354 3.364L68.5246 3.77192L68.528 3.76947L68.2354 3.364ZM66.7234 5.296L66.2671 5.09172L66.2671 5.09172L66.7234 5.296ZM66.6514 11.152L66.1875 11.3385L66.1891 11.3424L66.6514 11.152ZM68.0554 13.06L68.358 12.6619L68.358 12.6619L68.0554 13.06ZM71.9434 13.3L72.1879 13.7361L72.1901 13.7349L71.9434 13.3ZM73.2034 12.004L72.7666 11.7606L72.764 11.7655L73.2034 12.004ZM73.6714 9.976V9.476H73.1714V9.976H73.6714ZM74.2954 9.976H74.7954V9.476H74.2954V9.976ZM73.8274 13.348L73.3523 13.1923L73.3511 13.1959L73.8274 13.348ZM72.3994 15.556L72.0865 15.166L72.0865 15.166L72.3994 15.556ZM74.0794 16L73.5829 16.059L73.6354 16.5H74.0794V16ZM73.6714 12.568H73.1714V12.5976L73.1749 12.627L73.6714 12.568ZM73.6714 9.88H74.1714V9.39017L73.6817 9.3801L73.6714 9.88ZM70.1674 9.808H69.6674V10.2978L70.1572 10.3079L70.1674 9.808ZM70.1674 8.008V7.508H69.6674V8.008H70.1674ZM76.3834 8.008H76.8834V7.508H76.3834V8.008ZM76.3834 16V16.5H76.8834V16H76.3834ZM69.9034 15.836C68.7249 15.836 67.673 15.5264 66.7338 14.91L66.1851 15.746C67.2939 16.4736 68.5379 16.836 69.9034 16.836V15.836ZM66.7338 14.91C65.7898 14.2905 65.03 13.424 64.4575 12.294L63.5654 12.746C64.2089 14.016 65.0811 15.0215 66.1851 15.746L66.7338 14.91ZM64.4592 12.2976C63.8996 11.1708 63.6114 9.84153 63.6114 8.296H62.6114C62.6114 9.96647 62.9233 11.4532 63.5636 12.7424L64.4592 12.2976ZM63.6114 8.296C63.6114 7.0719 63.7885 5.99139 64.1331 5.04747L63.1938 4.70453C62.8024 5.77661 62.6114 6.97609 62.6114 8.296H63.6114ZM64.1319 5.05075C64.4873 4.0979 64.9745 3.29607 65.5891 2.63701L64.8578 1.95499C64.1444 2.71993 63.5915 3.6381 63.195 4.70125L64.1319 5.05075ZM65.5891 2.63701C66.2042 1.97742 66.9244 1.479 67.7534 1.13851L67.3735 0.213489C66.4105 0.609002 65.5706 1.19058 64.8578 1.95499L65.5891 2.63701ZM67.7569 1.13705C68.587 0.788721 69.4926 0.611999 70.4794 0.611999V-0.388001C69.3703 -0.388001 68.3319 -0.188723 67.37 0.214949L67.7569 1.13705ZM70.4794 0.611999C71.8631 0.611999 72.9835 0.911838 73.8692 1.4807L74.4096 0.6393C73.3273 -0.0558395 72.0078 -0.388001 70.4794 -0.388001V0.611999ZM73.8708 1.48169C74.7556 2.04541 75.4694 2.94818 75.9921 4.23604L76.9187 3.85996C76.3375 2.42782 75.5073 1.33859 74.4081 0.638309L73.8708 1.48169ZM76.3427 3.56087L73.4387 4.23287L73.6642 5.20713L76.5682 4.53513L76.3427 3.56087ZM73.9774 4.45824C73.5387 3.74423 73.0173 3.17988 72.4055 2.78721L71.8654 3.62879C72.3255 3.92412 72.7482 4.36777 73.1254 4.98176L73.9774 4.45824ZM72.4128 2.79197C71.7977 2.38192 71.1 2.18 70.3354 2.18V3.18C70.9149 3.18 71.4172 3.33008 71.8581 3.62402L72.4128 2.79197ZM70.3354 2.18C69.4608 2.18 68.6587 2.44205 67.9429 2.95852L68.528 3.76947C69.0762 3.37395 69.6741 3.18 70.3354 3.18V2.18ZM67.9463 2.95609C67.2287 3.46477 66.6727 4.18555 66.2671 5.09172L67.1798 5.50028C67.5262 4.72645 67.9782 4.15923 68.5246 3.77191L67.9463 2.95609ZM66.2671 5.09172C65.8558 6.01041 65.6594 7.08333 65.6594 8.296H66.6594C66.6594 7.18867 66.839 6.26159 67.1798 5.50028L66.2671 5.09172ZM65.6594 8.296C65.6594 9.43323 65.8308 10.451 66.1875 11.3385L67.1154 10.9655C66.8161 10.221 66.6594 9.33476 66.6594 8.296H65.6594ZM66.1891 11.3424C66.5531 12.2264 67.0708 12.9397 67.7529 13.4581L68.358 12.6619C67.8401 12.2683 67.4218 11.7096 67.1138 10.9616L66.1891 11.3424ZM67.7529 13.4581C68.4445 13.9837 69.2481 14.244 70.1434 14.244V13.244C69.4548 13.244 68.8664 13.0483 68.358 12.6619L67.7529 13.4581ZM70.1434 14.244C70.8914 14.244 71.5773 14.0785 72.1879 13.7361L71.6989 12.8639C71.2536 13.1135 70.7395 13.244 70.1434 13.244V14.244ZM72.1901 13.7349C72.8103 13.3832 73.2958 12.8818 73.6429 12.2425L72.764 11.7655C72.503 12.2462 72.1485 12.6088 71.6968 12.8651L72.1901 13.7349ZM73.6402 12.2474C74.0024 11.5974 74.1714 10.8333 74.1714 9.976H73.1714C73.1714 10.7027 73.0285 11.2906 72.7667 11.7606L73.6402 12.2474ZM73.6714 10.476H74.2954V9.476H73.6714V10.476ZM73.7954 9.976C73.7954 11.2338 73.6438 12.3028 73.3523 13.1923L74.3026 13.5037C74.6351 12.4892 74.7954 11.3102 74.7954 9.976H73.7954ZM73.3511 13.1959C73.0709 14.0735 72.6435 14.7191 72.0865 15.166L72.7124 15.946C73.4514 15.3529 73.976 14.5265 74.3037 13.5001L73.3511 13.1959ZM72.0865 15.166C71.5457 15.6 70.8318 15.836 69.9034 15.836V16.836C71.0071 16.836 71.9572 16.552 72.7124 15.946L72.0865 15.166ZM74.5759 15.941L74.1679 12.509L73.1749 12.627L73.5829 16.059L74.5759 15.941ZM74.1714 12.568V9.88H73.1714V12.568H74.1714ZM73.6817 9.3801L70.1777 9.30811L70.1572 10.3079L73.6612 10.3799L73.6817 9.3801ZM70.6674 9.808V8.008H69.6674V9.808H70.6674ZM70.1674 8.508H76.3834V7.508H70.1674V8.508ZM75.8834 8.008V16H76.8834V8.008H75.8834ZM76.3834 15.5H74.0794V16.5H76.3834V15.5ZM80.6736 16H80.1736V16.5H80.6736V16ZM80.6736 0.423999V-0.0760012H80.1736V0.423999H80.6736ZM90.6816 0.423999H91.1816V-0.0760012H90.6816V0.423999ZM90.6816 2.872V3.372H91.1816V2.872H90.6816ZM83.5056 2.872V2.372H83.0056V2.872H83.5056ZM83.5056 6.976H83.0056V7.476H83.5056V6.976ZM90.2496 6.976H90.7496V6.476H90.2496V6.976ZM90.2496 9.424V9.924H90.7496V9.424H90.2496ZM83.5056 9.424V8.924H83.0056V9.424H83.5056ZM83.5056 13.528H83.0056V14.028H83.5056V13.528ZM90.6816 13.528H91.1816V13.028H90.6816V13.528ZM90.6816 16V16.5H91.1816V16H90.6816ZM81.1736 16V0.423999H80.1736V16H81.1736ZM80.6736 0.923999H90.6816V-0.0760012H80.6736V0.923999ZM90.1816 0.423999V2.872H91.1816V0.423999H90.1816ZM90.6816 2.372H83.5056V3.372H90.6816V2.372ZM83.0056 2.872V6.976H84.0056V2.872H83.0056ZM83.5056 7.476H90.2496V6.476H83.5056V7.476ZM89.7496 6.976V9.424H90.7496V6.976H89.7496ZM90.2496 8.924H83.5056V9.924H90.2496V8.924ZM83.0056 9.424V13.528H84.0056V9.424H83.0056ZM83.5056 14.028H90.6816V13.028H83.5056V14.028ZM90.1816 13.528V16H91.1816V13.528H90.1816ZM90.6816 15.5H80.6736V16.5H90.6816V15.5Z" fill="white" mask="url(#path-1-outside-1_128_51)"/>
</svg>
